<?xml version="1.0" encoding="utf-8"?>
<!-- Generator: Adobe Illustrator 25.4.1, SVG Export Plug-In . SVG Version: 6.00 Build 0)  -->
<svg version="1.1" id="Layer_1" xmlns="http://www.w3.org/2000/svg" xmlns:xlink="http://www.w3.org/1999/xlink" x="0px" y="0px"
	 viewBox="0 0 396.5 396.5" style="enable-background:new 0 0 396.5 396.5;" xml:space="preserve">
<style type="text/css">
	.st0{opacity:0.99;enable-background:new    ;}
	.st1{fill:#FFFFFF;}
	.st2{fill:none;}
</style>
<g transform="translate(8.845 -2.36)">
	<circle class="st0" cx="189.4" cy="200.6" r="198.2"/>
	<path class="st1" d="M165.4,49.9c-3.8,0.7-11.4,16.1-11,43c0.4,27.5-10.3,24.3-12.7,24.3c-2.4,0-11.8-1.6-9-23.9
		c3.7-28.9-6-28.4-9.5-28.4c-3.4,0-8.2,3.9-9.4,9.4c-1.3,5.6-7.9,11.5-12.5,15.5c-7.6,6.6-18.4,3.4-24.9,13.7
		c-5.4,8.6-8.9,17.3-1.6,31.3c10.4,19.9,48.4-4.1,61.3-3.7c17.4,1.8,59.5,35,69.2-18.9c11.2-47.3-1.3-49-4.5-49.2
		c-3.2-0.2-7.6-2.8-10.6,32.7S170.1,121.2,171,114c0.8-6.7,4.5-53.7,2.3-55.9c-1.8-1.8-3.7-5.4-6.9-8
		C166.1,49.9,165.8,49.8,165.4,49.9L165.4,49.9z M111.9,94c2.7-0.1,4.8,1.1,6,3.9c2.7,6.6,1.8,21.5-5.6,25.4
		c-7.4,3.9-22.5,3.5-23-7.7c-0.2-3.8,0-7.9,9.2-15C103.7,96.6,108.3,94.2,111.9,94z M228.8,84.8c-0.7,12.3-5.4,45.1,3.4,45.8
		c8.8,0.6,15.5-35.9,16.1-44.3c0.6-8.4,3.4-35.9-7.3-37C230.3,48.2,229.6,70.8,228.8,84.8L228.8,84.8z M35.5,250.3
		c0,0,18.5-6.5,15.9-47.1c-2.6-40.6-2.8-33.8-2.8-33.8s5.4-3.9,14.2-5.2c4.5,14.4,5.2,71.6-6.2,81.5
		C45.2,255.7,35.5,250.3,35.5,250.3L35.5,250.3z M111.8,184.5c-13.5,0-15.3,6.9-19.8,11.6c-4.5,4.7-7.3,13.5-4.5,21.1
		c2.8,7.5,16.5,8.4,17.2,15.7c0.6,7.3-8.8,16.1-8.8,16.1c25.2-0.9,38.2-22.4,38.2-22.4s1.7,0.7,12.5,0.7c10.7,0,25.8,5.9,38.9,7.1
		c15.5,1.4,34.2,2.4,46.6,0.2c12.5-2.1,20.2-47.5,20.2-47.5L234,191c0,0,0.6,3.4-2.2,13.8c-2.8,10.3-11,19.5-20.6,13.5
		c-9.7-6,0.9-23.9,0.9-23.9l-18-1.1c0,0,0,18.5-12.9,18.5s-8-19.1-8-19.1l-16.4,0.7c0,0-0.4,15.7-12.7,15.9
		c-3.9,0.1-9.5-1.7-12.7-11.8C128.2,187.3,125.4,184.5,111.8,184.5L111.8,184.5z M113.3,199.8c0.3,0,0.7,0,1,0
		c3.3,0.4,8.4,2.1,7.6,12.3c-0.8,10.2-8.3,7.9-13.2,7c-3.8-0.7-6.3-1.3-7.6-8.8C100.2,205.3,108.2,199.9,113.3,199.8z M287.7,198.3
		c0,0-3.9,8.2-4.3,15.9c-0.4,7.7,0.4,8.8-0.8,12.7c-2.1,6.7-10.1,13.7-12.1,17.2c-1.9,3.4,1,9.2,6.6,6.6c5.6-2.6,10.9-5.5,15.3-11.9
		c4.3-6.3,8.5-17,9.9-27c1.5-11.8,1.4-25.2,1.4-25.2S292.6,194,287.7,198.3L287.7,198.3z M289.8,257.8c-3.5,0-8.1,1.1-13.3,2.8
		c-14,4.5-10.3,24.8-17.8,24.3c-7.5-0.4-15.5,7.5-15.5,7.5c4.3,4.7,21.2,22.6,17.2,23.5c-12.6,3-34.1,1.8-36.7-0.3
		c-2.4-2-5.3-21.8-21.8-22.1c-14.7-0.2-17.1,9.4-19.5,11c-2.4,1.6-6.2,1.9-10.6,0.6c-4.4-1.4-4.2-6.2-11.5-19.4
		c-7.3-13.2-21.3-13.4-26.8-14.3c-5.5-0.9-27.2-2.9-25.2,8.4c1.8,10.1,26.3,8.5,33.5,13.2c6.3,4.1,11.1,6.8,10.6,12
		c-0.5,5.2-2.7,7.1-22.1,4.5c-19.3-2.6-18.5,6.4-18.5,6.4c-6.8,14.3,71.5,9.6,71.5,9.6s12.9,11.9,18.9,12c6.3,0.2,18.3-8.4,18.3-8.4
		s65.1,4.5,65.8-9.9c0.4-9.3-21.3-17.6-21.3-17.6s4.8-7.3,11.9-6.6c7.1,0.6,17.1-4.3,17.1-8.6c0-4.3,3-2.8,4.1-16.8
		C298.9,260.9,295.7,257.8,289.8,257.8L289.8,257.8z M280.6,265.7c0.2,0,0.4,0,0.6,0c3.7,0.5,6.1,2.5,5.5,9.7c-0.6,6.1-7.5,7-11,4.6
		c-2.2-1.5-1.9-4.8-1-7.9C275.6,269.1,277.9,265.7,280.6,265.7L280.6,265.7z M195.7,300.9c1.5-0.1,3.3,0.1,5.5,0.5
		c9.7,1.8,10.3,13.1,9,16c-1.6,3.9-8.1,8.7-14.9,5.7c-7.8-3.4-9.3-8.9-8.7-12.5C187.1,307.6,187.4,301.3,195.7,300.9L195.7,300.9z"
		/>
</g>
<path class="st2" d="M0,0h396.5v396.5H0V0z"/>
</svg>
